<?xml version="1.0" standalone="no"?>
<!DOCTYPE svg PUBLIC "-//W3C//DTD SVG 1.0//EN" "http://www.w3.org/TR/2001/REC-SVG-20010904/DTD/svg10.dtd">
<svg xmlns="http://www.w3.org/2000/svg" xmlns:xlink="http://www.w3.org/1999/xlink" id="body_1" width="176" height="176">

<g transform="matrix(0.171875 0 0 0.171875 0 0)">
    <path d="M0 0L1024 0L1024 1024L0 1024z" stroke="none" fill="none" />
	<g transform="matrix(10.188388 0 0 10.188388 -251.51994 -252.7926)">
		<g>
            <path d="M-25 -25L175 -25L175 175L-25 175L-25 -25z" stroke="none" fill="none" />
            <path d="M75 120.4C 50.1 120.4 29.7 99.9 29.7 75C 29.7 69.4 30.7 64.1 32.600002 59.1L32.600002 59.1L59.100002 112.399994C 59.4 113.09999 59.9 113.7 60.7 113.7C 61.5 113.7 62 113.1 62.3 112.399994L62.3 112.399994L74.5 85.09999C 74.6 84.79999 74.8 84.49999 75.1 84.49999C 75.399994 84.49999 75.5 84.799995 75.7 85.09999L75.7 85.09999L87.899994 112.399994C 88.2 113.09999 88.7 113.7 89.49999 113.7C 90.299995 113.7 90.799995 113.1 91.09999 112.399994L91.09999 112.399994L117.59999 59.099995C 119.49999 64.09999 120.49999 69.399994 120.49999 74.99999C 120.3 99.9 99.9 120.4 75 120.4zM75 64.7C 74.7 64.7 74.6 64.399994 74.4 64.1L74.4 64.1L60.2 32.1C 64.8 30.399998 69.8 29.499998 75 29.499998C 80.2 29.499998 85.2 30.399998 89.8 32.1L89.8 32.1L75.600006 64.1C 75.4 64.5 75.3 64.7 75 64.7zM60.5 97.6C 60.2 97.6 60.1 97.299995 59.9 97L59.9 97L36.9 50.6C 41 44.3 46.5 39 53.2 35.3L53.2 35.3L69.8 72.2C 70 72.8 70.5 73 71 73L71 73L79 73C 79.6 73 80 72.9 80.3 72.2L80.3 72.2L96.9 35.299995C 103.5 38.999996 109.1 44.299995 113.2 50.599995L113.2 50.599995L90 97C 89.9 97.3 89.7 97.6 89.4 97.6C 89.1 97.6 89 97.299995 88.8 97L88.8 97L80.100006 77.2C 79.8 76.5 79.40001 76.399994 78.8 76.399994L78.8 76.399994L70.8 76.399994C 70.200005 76.399994 69.8 76.49999 69.5 77.2L69.5 77.2L61.1 97C 61 97.3 60.8 97.6 60.5 97.6zM75 125C 102.7 125 125 102.7 125 75C 125 47.3 102.7 25 75 25C 47.3 25 25 47.3 25 75C 25 102.7 47.3 125 75 125z" stroke="none" fill="#001E50" fill-rule="nonzero" />
		</g>
	</g>
</g>
</svg>